<svg width="19" height="15" viewBox="0 0 19 15" fill="none" xmlns="http://www.w3.org/2000/svg">
<path opacity="0.3" d="M18.066 1.86395C17.391 2.14959 16.6751 2.33712 15.9421 2.4203C16.7045 1.98243 17.291 1.29045 17.567 0.464721C16.8411 0.876405 16.0469 1.16645 15.2188 1.32233C14.5198 0.608933 13.5424 0.204852 12.5198 0.206548C10.4784 0.206548 8.82158 1.78855 8.82158 3.74007C8.82158 4.01736 8.85424 4.28763 8.91818 4.54569C5.84436 4.39808 3.12012 2.99182 1.29584 0.853463C0.977306 1.37475 0.795614 1.98243 0.795614 2.63022C0.795614 3.85569 1.44821 4.93751 2.44027 5.57134C1.85291 5.55414 1.27843 5.40255 0.765025 5.1293V5.17436C0.765025 6.88606 2.03986 8.31441 3.73075 8.63974C3.18617 8.78066 2.61519 8.80134 2.06102 8.70019C2.53181 10.1044 3.89795 11.1258 5.51547 11.1555C4.25007 12.1018 2.65577 12.6678 0.922798 12.6678C0.628122 12.6675 0.333709 12.651 0.0410156 12.6184C1.6774 13.6207 3.62162 14.2065 5.70981 14.2065C12.5118 14.2065 16.2307 8.82064 16.2307 4.15002C16.2307 3.99725 16.2307 3.84448 16.2192 3.69281C16.9429 3.19241 17.5678 2.57318 18.0649 1.86395H18.066Z" fill="white"/>
</svg>
