<svg width="20" height="19" viewBox="0 0 20 19" fill="none" xmlns="http://www.w3.org/2000/svg">
<path fill-rule="evenodd" clip-rule="evenodd" d="M19.9602 13.4953V9.42392V0.550293H2.93894L0.811279 2.847V14.9569H6.13043V18.7151H8.47085L11.024 16.0008H17.407L19.9602 13.4953ZM7.40694 13.2866H4.00268C3.76864 13.2866 3.57715 13.0987 3.57715 12.8691V2.63829C3.57715 2.40862 3.76864 2.2207 4.00268 2.2207H17.6197C17.8537 2.2207 18.0452 2.40862 18.0452 2.63829V10.5724C18.0452 10.6872 18.0027 10.7916 17.9229 10.8699L15.5825 13.1666C15.5027 13.2449 15.391 13.2866 15.2793 13.2866H11.3697L8.07183 15.5103C8.00268 15.5572 7.91757 15.5833 7.83247 15.5833C7.76332 15.5833 7.69949 15.5677 7.63566 15.5364C7.49204 15.4633 7.40694 15.3224 7.40694 15.1658V13.2866Z" fill="#774AA4"/>
<path d="M13.79 9.63286V5.45703H12.0878V9.63286H13.79ZM9.53465 9.63286V5.45703H7.83252V9.63286H9.53465Z" fill="#774AA4"/>
</svg>
