<svg width="22" height="17" viewBox="0 0 22 17" fill="none" xmlns="http://www.w3.org/2000/svg">
<path fill-rule="evenodd" clip-rule="evenodd" d="M21.2138 2.29985C20.4408 2.62185 19.6098 2.83685 18.7388 2.93485C19.6288 2.43485 20.3118 1.64285 20.6338 0.700846C19.7998 1.16285 18.8778 1.49885 17.8958 1.68085C17.1108 0.894846 15.9898 0.404846 14.7508 0.404846C12.3708 0.404846 10.4398 2.21385 10.4398 4.44385C10.4398 4.76085 10.4778 5.06985 10.5518 5.36485C6.96981 5.19585 3.79381 3.58785 1.66781 1.14485C1.29681 1.74185 1.08481 2.43485 1.08481 3.17585C1.08481 4.57585 1.84581 5.81385 3.00181 6.53785C2.29581 6.51585 1.63181 6.33485 1.04981 6.03185C1.04981 6.04985 1.04981 6.06485 1.04981 6.08385C1.04981 8.04085 2.53481 9.67285 4.50681 10.0438C4.14581 10.1358 3.76381 10.1838 3.37181 10.1838C3.09381 10.1838 2.82381 10.1598 2.56081 10.1138C3.10881 11.7168 4.70081 12.8858 6.58681 12.9188C5.11181 14.0018 3.25381 14.6468 1.23381 14.6468C0.885811 14.6468 0.542811 14.6278 0.205811 14.5908C2.11281 15.7358 4.37881 16.4058 6.81281 16.4058C14.7408 16.4058 19.0758 10.2498 19.0758 4.91285C19.0758 4.73685 19.0708 4.56385 19.0628 4.38985C19.9048 3.81985 20.6358 3.10885 21.2138 2.29985Z" fill="white"/>
</svg>
